<svg xmlns="http://www.w3.org/2000/svg" viewBox="0 0 1200 800" role="img" aria-label="Gegenereerd FLYNOW resortbeeld">
  <defs>
    <linearGradient id="sky" x1="0" y1="0" x2="1" y2="1"><stop stop-color="#fef3c7"/><stop offset=".48" stop-color="#fb7185"/><stop offset="1" stop-color="#1f2937"/></linearGradient>
    <linearGradient id="pool" x1="0" y1="0" x2="0" y2="1"><stop stop-color="#67e8f9"/><stop offset="1" stop-color="#0369a1"/></linearGradient>
    <filter id="grain"><feTurbulence type="fractalNoise" baseFrequency=".8" numOctaves="2"/><feColorMatrix type="saturate" values="0"/><feComponentTransfer><feFuncA type="table" tableValues="0 .13"/></feComponentTransfer></filter>
  </defs>
  <rect width="1200" height="800" fill="url(#sky)"/>
  <circle cx="220" cy="160" r="95" fill="#fff7ed" opacity=".78"/>
  <rect x="110" y="330" width="980" height="260" rx="30" fill="#fff7ed" opacity=".92"/>
  <rect x="165" y="382" width="185" height="108" rx="10" fill="#0f172a" opacity=".18"/>
  <rect x="405" y="382" width="185" height="108" rx="10" fill="#0f172a" opacity=".18"/>
  <rect x="645" y="382" width="185" height="108" rx="10" fill="#0f172a" opacity=".18"/>
  <path d="M0 560 C260 530 460 585 680 548 C850 520 1035 540 1200 505 L1200 800 L0 800 Z" fill="url(#pool)"/>
  <path d="M0 690 C250 650 480 705 720 660 C890 630 1065 655 1200 622" fill="none" stroke="#ecfeff" stroke-width="18" opacity=".55"/>
  <path d="M950 325 L985 590 M910 380 C965 340 1025 325 1090 340 M914 380 C865 348 815 350 765 385" stroke="#5b3b15" stroke-width="15" fill="none" stroke-linecap="round"/>
  <rect width="1200" height="800" filter="url(#grain)" opacity=".65"/>
</svg>
