<svg xmlns="http://www.w3.org/2000/svg" viewBox="0 0 1200 800" role="img" aria-label="Gegenereerd FLYNOW alpinebeeld">
  <defs>
    <linearGradient id="sky" x1="0" y1="0" x2="0" y2="1"><stop stop-color="#bfdbfe"/><stop offset=".55" stop-color="#818cf8"/><stop offset="1" stop-color="#0f172a"/></linearGradient>
    <filter id="grain"><feTurbulence type="fractalNoise" baseFrequency=".82" numOctaves="2"/><feColorMatrix type="saturate" values="0"/><feComponentTransfer><feFuncA type="table" tableValues="0 .12"/></feComponentTransfer></filter>
  </defs>
  <rect width="1200" height="800" fill="url(#sky)"/>
  <circle cx="980" cy="145" r="80" fill="#eff6ff" opacity=".72"/>
  <path d="M0 530 L180 260 L350 525 Z" fill="#c7d2fe"/>
  <path d="M225 560 L530 130 L860 560 Z" fill="#f8fafc"/>
  <path d="M675 560 L960 245 L1200 525 L1200 800 L0 800 L0 575 Z" fill="#e0f2fe"/>
  <path d="M530 130 L470 340 L575 300 L655 430 L860 560 Z" fill="#60a5fa" opacity=".45"/>
  <path d="M60 700 C280 630 450 695 665 635 C850 582 1035 610 1200 560 L1200 800 L0 800 Z" fill="#fff"/>
  <path d="M170 505 C350 458 510 500 680 465 C845 430 980 435 1120 400" stroke="#dbeafe" stroke-width="13" fill="none" opacity=".7"/>
  <rect x="740" y="565" width="130" height="76" rx="10" fill="#7f1d1d"/>
  <path d="M725 570 L805 510 L885 570 Z" fill="#fff"/>
  <rect width="1200" height="800" filter="url(#grain)" opacity=".75"/>
</svg>
