<svg xmlns="http://www.w3.org/2000/svg" viewBox="0 0 1200 800" role="img" aria-label="Gegenereerd FLYNOW strandbeeld">
  <defs>
    <linearGradient id="sky" x1="0" y1="0" x2="1" y2="1"><stop stop-color="#ffd166"/><stop offset=".45" stop-color="#f97316"/><stop offset="1" stop-color="#432818"/></linearGradient>
    <linearGradient id="sea" x1="0" y1="0" x2="0" y2="1"><stop stop-color="#2dd4bf"/><stop offset="1" stop-color="#075985"/></linearGradient>
    <filter id="grain"><feTurbulence type="fractalNoise" baseFrequency=".9" numOctaves="2" stitchTiles="stitch"/><feColorMatrix type="saturate" values="0"/><feComponentTransfer><feFuncA type="table" tableValues="0 .16"/></feComponentTransfer></filter>
  </defs>
  <rect width="1200" height="800" fill="url(#sky)"/>
  <circle cx="880" cy="170" r="105" fill="#fff7ad" opacity=".85"/>
  <path d="M0 390 C190 350 350 430 540 385 C760 330 950 375 1200 330 L1200 800 L0 800 Z" fill="url(#sea)" opacity=".92"/>
  <path d="M0 585 C240 545 430 635 650 585 C840 545 1020 575 1200 535 L1200 800 L0 800 Z" fill="#f8d38b"/>
  <path d="M120 610 C300 580 450 640 630 610 C800 585 960 612 1130 575" fill="none" stroke="#fff7ed" stroke-width="16" opacity=".75"/>
  <path d="M160 540 C210 470 250 415 310 365 M248 430 C190 410 145 420 105 455 M250 430 C290 385 345 360 410 360" stroke="#2f2109" stroke-width="18" fill="none" stroke-linecap="round"/>
  <path d="M304 358 C215 365 150 395 105 455 C190 430 255 425 304 358 Z" fill="#166534" opacity=".9"/>
  <path d="M304 358 C340 385 380 382 430 360 C370 330 325 335 304 358 Z" fill="#15803d" opacity=".9"/>
  <rect width="1200" height="800" filter="url(#grain)" opacity=".55"/>
</svg>
