<svg xmlns="http://www.w3.org/2000/svg" viewBox="0 0 1200 800" role="img" aria-label="Gegenereerd FLYNOW skipistebeeld">
  <defs>
    <linearGradient id="sky" x1="0" y1="0" x2="1" y2="1"><stop stop-color="#e0f2fe"/><stop offset=".5" stop-color="#38bdf8"/><stop offset="1" stop-color="#1e1b4b"/></linearGradient>
    <filter id="grain"><feTurbulence type="fractalNoise" baseFrequency=".8" numOctaves="2"/><feColorMatrix type="saturate" values="0"/><feComponentTransfer><feFuncA type="table" tableValues="0 .14"/></feComponentTransfer></filter>
  </defs>
  <rect width="1200" height="800" fill="url(#sky)"/>
  <path d="M0 510 L325 155 L640 520 Z" fill="#f8fafc"/>
  <path d="M420 535 L745 120 L1200 545 L1200 800 L0 800 L0 560 Z" fill="#dbeafe"/>
  <path d="M0 620 C260 565 450 635 680 590 C850 555 1000 565 1200 525 L1200 800 L0 800 Z" fill="#fff"/>
  <path d="M745 120 L690 310 L780 280 L860 420 L1200 545 Z" fill="#6366f1" opacity=".42"/>
  <path d="M360 580 C435 565 500 590 575 570 C655 550 720 560 800 535" stroke="#0284c7" stroke-width="12" fill="none" opacity=".8"/>
  <path d="M390 548 L370 625 M438 535 L468 610" stroke="#0f172a" stroke-width="8" stroke-linecap="round"/>
  <circle cx="412" cy="515" r="25" fill="#ef4444"/>
  <rect x="390" y="540" width="42" height="80" rx="18" fill="#1e3a8a"/>
  <rect width="1200" height="800" filter="url(#grain)" opacity=".74"/>
</svg>
